<?xml version="1.0" encoding="utf-8"?>
<!-- Generator: Adobe Illustrator 17.0.2, SVG Export Plug-In . SVG Version: 6.00 Build 0)  -->
<!DOCTYPE svg PUBLIC "-//W3C//DTD SVG 1.1//EN" "http://www.w3.org/Graphics/SVG/1.1/DTD/svg11.dtd">
<svg version="1.1" id="Layer_1" xmlns="http://www.w3.org/2000/svg" xmlns:xlink="http://www.w3.org/1999/xlink" x="0px" y="0px"
	 width="728px" height="185.512px" viewBox="-7.727 -5.962 728 185.512" enable-background="new -7.727 -5.962 728 185.512"
	 xml:space="preserve">
<path fill="#FFF5E4" d="M207.544,86.536c0,47.792-46.461,86.536-103.772,86.536C46.458,173.072,0,134.328,0,86.536
	S46.458,0,103.772,0C161.083,0,207.544,38.744,207.544,86.536"/>
<path fill="#C49061" d="M52.551,105.127l-1.173-13.796l73.381-64.871l9.687,4.109c0,0,23.483-20.255,33.17-18.787
	c0,0,16.437,2.645,9.395,17.614c0,0-13.505,9.392-28.182,12.623l0.59,31.406l-70.157,60.762l-20.252-9.395
	c0,0-19.668,23.483-25.246,26.419c0,0-14.678,12.915-19.373-6.456C14.39,144.756,11.454,118.923,52.551,105.127"/>
<path fill="#512606" d="M48.441,103.66c0,0-10.568-13.21,6.164-22.31c0,0,14.091-6.751,23.188,9.687c0,0,9.395,16.146,3.231,29.06
	c0,0-12.623,8.219-19.668-2.641l0.295,8.219c0,0,6.164,7.927,17.905,3.228c0,0,4.696,0,16.732-17.905
	c0,0,51.953-54.598,57.53-58.999c0,0,0-14.678-3.814-19.373c0,0,5.282-7.046,22.306-7.337c0,0,4.404-11.45-3.519-17.614
	c0,0-9.687-5.577-16.146-1.173c0,0-6.751,4.991-14.969,17.024c0,0-7.046-3.523-15.851-3.523c0,0-35.519,32.878-71.625,52.251
	l17.905,1.173c0,0,50.488-46.379,54.306-49.902c0,0,9.1,0.295,11.741,2.35c0,0,0,1.468-6.164,3.523l4.987,2.641l4.109-4.991
	c0,0,4.113,2.641,6.459,6.459c0,0-6.164,4.109-4.109,13.501l5.577-8.514c0,0,1.173,12.623,0.295,17.905L87.774,99.845
	c0,0-8.514-19.668-23.188-23.483c0,0-33.17-0.295-23.483,26.124c0,0-2.065,3.763-15.81,6.757c0,0-17.974,5.286-21.764,18.194
	c0,0-3.711,26.381,30.926,16.695c0,0,11.982-3.523,20.149-23.448c0,0,4.991-12.915,14.678-12.62l-7.046-3.818
	c0,0-13.501,21.133-29.647,31.115c0,0-22.275,9.299-18.492-7.632C14.098,127.729,17.185,115.94,48.441,103.66"/>
<path fill="#FFFFFF" d="M139.338,23.819c0,0,1.468,0.144,2.912,1.111c0,0,13.673-9.917,25.52-13.319c0,0-3.739-6.634-12.417-2.535
	L139.338,23.819z"/>
<path fill="#E3B867" d="M23.491,127.142l-0.882,7.337l10.273-3.523l7.341-10.565C40.223,120.392,27.013,124.206,23.491,127.142"/>
<polygon fill="#E3B867" points="127.108,33.505 79.85,76.948 90.124,79.884 138.262,48.183 134.74,39.374 "/>
<path fill="#C49061" d="M142.257,24.935l5.649,4.01c0,0,6.363-5.399,13.093-6.696c0,0,9.536-3.379,6.764-10.668
	C167.763,11.581,157.243,13.79,142.257,24.935"/>
<text transform="matrix(1 0 0 1 222.6853 60.0382)" font-family="'ITCAvantGardeStd-Bk'" font-size="64.4033">Th</text>
<text transform="matrix(1 0 0 1 293.0144 60.0382)" font-family="'ITCAvantGardeStd-Bk'" font-size="64.4033">e</text>
<g>
	<defs>
		<rect id="SVGID_1_" x="-7.727" y="-5.962" width="728" height="185.512"/>
	</defs>
	<clipPath id="SVGID_2_">
		<use xlink:href="#SVGID_1_"  overflow="visible"/>
	</clipPath>
	<g clip-path="url(#SVGID_2_)">
		<text transform="matrix(1 0 0 1 220.1638 149.4884)" font-family="'ITCAvantGardeStd-Bk'" font-size="107.3388">Rolling</text>
	</g>
	<g clip-path="url(#SVGID_2_)">
		<text transform="matrix(1 0 0 1 576.7439 154.1066)" font-family="'ITCAvantGardeStd-Bk'" font-size="107.3388">Pin</text>
	</g>
</g>
</svg>
